# xmcd CD database file generated by Grip 3.3.1
# 
# Track frame offsets:
#       150
#       12472
#       38572
#       61324
#       78371
#       96119
#       111769
#       132742
#       148142
#       161307
#       176896
#       213695
# 
# Disc length: 3774 seconds
# 
# Revision: 2
# Processed by: cddbd v1.5.2PL0 Copyright (c) Steve Scherf et al.
# Submitted via: Grip 3.3.1
# 
DISCID=aa0ebc0c
DTITLE=Taj Mahal and The Hula Blues - Hanapepe Dream
DYEAR=2003
DGENRE=Blues
TTITLE0=Great Big Boat
TTITLE1=Blackjack Davey
TTITLE2=Moonlight Lady
TTITLE3=King Edward's Throne
TTITLE4=African Herbman
TTITLE5=Baby You're My Destiny
TTITLE6=Stagger Lee
TTITLE7=Livin' On Easy
TTITLE8=My Creole Belle
TTITLE9=All Along The Watchtower
TTITLE10=Hanapepe Dream
TTITLE11=Data
EXTD=
EXTT0=
EXTT1=
EXTT2=
EXTT3=
EXTT4=
EXTT5=
EXTT6=
EXTT7=
EXTT8=
EXTT9=
EXTT10=
EXTT11=
PLAYORDER=
